<svg width="128" height="128" viewBox="0 0 128 128" xmlns="http://www.w3.org/2000/svg">
  <g fill="#FFFFFF">
    <!-- 7 columns x 5 rows, large pixels -->

    <!-- row 1 (lifted edges) -->
    <rect x="28" y="34" width="6" height="6"/>
    <rect x="44" y="32" width="6" height="6"/>
    <rect x="60" y="31" width="6" height="6"/>
    <rect x="76" y="32" width="6" height="6"/>
    <rect x="92" y="34" width="6" height="6"/>

    <!-- row 2 -->
    <rect x="24" y="48" width="6" height="6"/>
    <rect x="42" y="46" width="8" height="8"/>
    <rect x="60" y="45" width="8" height="8"/>
    <rect x="78" y="46" width="8" height="8"/>
    <rect x="98" y="48" width="6" height="6"/>

    <!-- row 3 (closest / center) -->
    <rect x="22" y="64" width="8" height="8"/>
    <rect x="42" y="62" width="10" height="10"/>
    <rect x="62" y="60" width="12" height="12"/>
    <rect x="82" y="62" width="10" height="10"/>
    <rect x="102" y="64" width="8" height="8"/>

    <!-- row 4 -->
    <rect x="24" y="82" width="6" height="6"/>
    <rect x="42" y="80" width="8" height="8"/>
    <rect x="60" y="79" width="8" height="8"/>
    <rect x="78" y="80" width="8" height="8"/>
    <rect x="98" y="82" width="6" height="6"/>

    <!-- row 5 -->
    <rect x="28" y="96" width="6" height="6"/>
    <rect x="44" y="94" width="6" height="6"/>
    <rect x="60" y="93" width="6" height="6"/>
    <rect x="76" y="94" width="6" height="6"/>
    <rect x="92" y="96" width="6" height="6"/>
  </g>
</svg>